<svg xmlns="http://www.w3.org/2000/svg" xmlns:xlink="http://www.w3.org/1999/xlink" width="131.167" height="29.346" viewBox="0 0 131.167 29.346">
  <defs>
    <linearGradient id="linear-gradient" y1="0.5" x2="0.988" y2="0.5" gradientUnits="objectBoundingBox">
      <stop offset="0" stop-color="#eb4134"/>
      <stop offset="1" stop-color="#f58536"/>
    </linearGradient>
  </defs>
  <path id="합치기_1" data-name="합치기 1" d="M35.771,27.611,33.558,25.4a8.824,8.824,0,0,1-3.337.657H8.983A9.056,9.056,0,0,1,0,16.93V9.13A9.058,9.058,0,0,1,8.986,0H30.222a9.058,9.058,0,0,1,8.986,9.129v7.8a9.211,9.211,0,0,1-.657,3.416L40.8,22.586a3.535,3.535,0,0,1-.357,4.666,3.785,3.785,0,0,1-2.661,1.094A2.83,2.83,0,0,1,35.771,27.611ZM7.1,12.722V14.2c.117,1.55.906,4.643,5.418,4.643h14.16c4.516,0,5.306-3.093,5.419-4.643V12.722c0-4.586-3.047-5.388-4.566-5.5H11.676C10.151,7.334,7.1,8.137,7.1,12.722ZM54.391,26.057a8.985,8.985,0,0,1-8.985-8.986V10.736h0V3.047A3.534,3.534,0,0,1,48.956,0,3.487,3.487,0,0,1,52.51,3.047V13.531c0,4.514,3.042,5.307,4.568,5.418H72.066c4.513,0,5.3-3.047,5.418-4.566V3.047A3.534,3.534,0,0,1,81.034,0a3.486,3.486,0,0,1,3.554,3.047V17.071A8.986,8.986,0,0,1,75.6,26.057Zm45.336-.194a8.981,8.981,0,0,1-8.983-8.982V9.2A8.986,8.986,0,0,1,99.729.218H126.6a3.55,3.55,0,0,1,3.55,3.551v0a3.55,3.55,0,0,1-3.55,3.551H102.418c-1.525.113-4.572.9-4.572,5.416v1.451c.119,1.525.905,4.57,5.418,4.57H126.6a3.551,3.551,0,0,1,0,7.1Zm4.154-9.276a3.317,3.317,0,0,1,0-6.635h22.968a3.317,3.317,0,1,1,0,6.635Z" transform="translate(0.5 0.5)" stroke="rgba(0,0,0,0)" stroke-miterlimit="10" stroke-width="1" fill="url(#linear-gradient)"/>
</svg>
